<svg xmlns="http://www.w3.org/2000/svg" width="20" height="20" viewBox="0 0 20 20">
    <g fill="none" fill-rule="evenodd">
        <g>
            <g>
                <g>
                    <path stroke="#000" d="M14 19L17 19 17 4 14 4zM8 19L11 19 11 9 8 9zM2 19L5 19 5 14 2 14z" transform="translate(-156.000000, -713.000000) translate(156.000000, 713.000000) translate(0.500000, 0.500000)"/>
                    <path stroke="#000" stroke-linecap="square" d="M0 19L19 19" transform="translate(-156.000000, -713.000000) translate(156.000000, 713.000000) translate(0.500000, 0.500000)"/>
                    <path fill="#000" d="M13.396 0L7.919 1.095 9.723 2.898 1.5 11.122 2.274 11.896 10.498 3.673 12.301 5.476z" transform="translate(-156.000000, -713.000000) translate(156.000000, 713.000000) translate(0.500000, 0.500000)"/>
                </g>
            </g>
        </g>
    </g>
</svg>
