<svg xmlns="http://www.w3.org/2000/svg" width="27" height="30" viewBox="0 0 27 30">
    <g fill="#0A0B09" fill-rule="evenodd">
        <path d="M1.738 4C1.331 4 1 4.404 1 4.9v5.201c0 .496.331.899.738.899h4.426c1.312 0 2.716.461 4.294 1.409C12.166 13.435 14.345 14 16.595 14c2.381 0 4.659-.627 6.415-1.766C24.938 10.983 26 9.303 26 7.5c0-1.802-1.062-3.483-2.99-4.733C21.254 1.628 18.976 1 16.595 1c-2.25 0-4.429.565-6.137 1.592C8.88 3.539 7.476 4 6.164 4H1.738zm14.857 11c-2.429 0-4.791-.615-6.652-1.733C8.525 12.414 7.289 12 6.164 12H1.738C.779 12 0 11.148 0 10.101V4.9C0 3.852.779 3 1.738 3h4.426c1.125 0 2.361-.414 3.779-1.266C11.804.616 14.166 0 16.595 0c2.572 0 5.043.685 6.959 1.928C25.744 3.348 27 5.379 27 7.5c0 2.122-1.256 4.153-3.446 5.573C21.638 14.316 19.167 15 16.595 15zM16.5 20a.499.499 0 0 1-.5-.5v-2a.5.5 0 1 1 1 0v2a.5.5 0 0 1-.5.5"/>
        <path d="M18 25h-4.5a.5.5 0 0 1-.354-.853c.653-.653.435-5.48-.142-9.577a.501.501 0 0 1 .991-.139c.256 1.818.935 7.253.287 9.569h3.522c.793-.875 1.196-4.067 1.196-9.5a.5.5 0 1 1 1 0c0 6.347-.506 9.455-1.69 10.392A.5.5 0 0 1 18 25"/>
        <path d="M11.5 30c-3.368 0-5.234-.575-6.051-1.866-.678-1.073-.553-2.552.382-4.522a22.5 22.5 0 0 1 .378-.746c.798-1.533 2.134-4.099 1.11-5.786C6.483 15.7 4.188 15 .5 15a.499.499 0 1 1 0-1c4.119 0 6.629.838 7.674 2.561 1.316 2.169-.182 5.047-1.078 6.767-.139.268-.265.508-.362.713-.765 1.613-.913 2.81-.44 3.558C6.899 28.555 8.553 29 11.5 29c4.152 0 4.5-2.322 4.5-4.5a.5.5 0 1 1 1 0c0 1.646 0 5.5-5.5 5.5M7.5 12a.499.499 0 0 1-.5-.5v-8a.5.5 0 1 1 1 0v8a.5.5 0 0 1-.5.5M22.5 6h-4a.499.499 0 1 1 0-1h4a.5.5 0 0 1 0 1M22.5 10h-4a.499.499 0 1 1 0-1h4a.5.5 0 0 1 0 1"/>
    </g>
</svg>
