<svg xmlns="http://www.w3.org/2000/svg" width="19" height="19" viewBox="0 0 19 19">
    <g fill="none" fill-rule="evenodd">
        <g>
            <g>
                <path fill="#222" d="M9.79 12.418c-.69 0-1.44-.31-2.034-.902C6.755 10.513 6.55 9.105 7.28 8.24c.188-.225.523-.255.748-.064.225.19.253.524.064.748-.36.426-.173 1.25.415 1.84.613.61 1.474.782 1.88.377.366-.367.246-.959-.376-1.864l-.066-.099c-.996-1.44-1.082-2.524-.31-3.298.83-.828 2.347-.658 3.383.377 1.002 1.002 1.207 2.41.477 3.275-.19.223-.524.253-.749.064-.224-.19-.253-.525-.063-.75.359-.424.172-1.249-.416-1.837-.61-.61-1.471-.785-1.88-.378-.367.368-.247.962.379 1.868l.066.096c.993 1.443 1.077 2.525.307 3.297-.354.354-.834.525-1.349.525" transform="translate(-156.000000, -534.000000) translate(156.000000, 534.000000) translate(10.387576, 8.886943) rotate(2.000000) translate(-10.387576, -8.886943)"/>
                <path fill="#222" d="M7.72 12.087c-.137 0-.273-.052-.377-.155-.207-.209-.207-.544 0-.753l5.313-5.312c.207-.207.544-.207.75 0 .208.208.208.544 0 .752l-5.312 5.313c-.104.103-.24.155-.375.155" transform="translate(-156.000000, -534.000000) translate(156.000000, 534.000000) translate(10.374894, 8.899034) rotate(2.000000) translate(-10.374894, -8.899034)"/>
                <path stroke="#222" d="M16.862 1.435c.182 1.592.39 7.123.431 8.28h0l-7.137 7.363L2 9.53l7.01-7.698z" transform="translate(-156.000000, -534.000000) translate(156.000000, 534.000000) translate(9.476503, 9.381284) rotate(2.000000) translate(-9.476503, -9.381284)"/>
            </g>
        </g>
    </g>
</svg>
