<svg xmlns="http://www.w3.org/2000/svg" width="19" height="19" viewBox="0 0 19 19">
    <g fill="none" fill-rule="evenodd">
        <g stroke="#000" stroke-width=".704">
            <g>
                <g>
                    <path stroke-linecap="round" d="M16.522 8.261c0 4.562-3.699 8.261-8.261 8.261C3.698 16.522 0 12.823 0 8.261 0 3.698 3.698 0 8.26 0c4.563 0 8.262 3.698 8.262 8.261zM14.102 14.102L18.296 18.296" transform="translate(-156.000000, -614.000000) translate(156.000000, 613.999927) translate(0.000036, 0.000000)"/>
                    <path d="M13.424 12.368L9.827 10.919 9.827 9.104M6.552 9.05L6.552 10.92 3.212 12.329" transform="translate(-156.000000, -614.000000) translate(156.000000, 613.999927) translate(0.000036, 0.000000)"/>
                    <path d="M11.157 6.155c0 1.945-1.314 3.522-2.934 3.522-1.621 0-2.935-1.577-2.935-3.522 0-1.944 1.314-3.52 2.935-3.52 1.62 0 2.934 1.576 2.934 3.52z" transform="translate(-156.000000, -614.000000) translate(156.000000, 613.999927) translate(0.000036, 0.000000)"/>
                </g>
            </g>
        </g>
    </g>
</svg>
