<svg height="30" viewBox="0 0 30 30" width="30" xmlns="http://www.w3.org/2000/svg"><g fill-rule="evenodd"><path d="m25.989 21a.495.495 0 0 1 -.49-.5v-10c0-.276.219-.5.49-.5h1.758l-8.623-8.793-8.624 8.793h1.759c.27 0 .49.224.49.5v7c0 .276-.22.5-.49.5a.495.495 0 0 1 -.49-.5v-6.5h-2.453a.49.49 0 0 1 -.453-.309.506.506 0 0 1 .105-.545l9.808-10a.485.485 0 0 1 .694 0l9.807 10c.14.143.182.359.106.545a.49.49 0 0 1 -.453.309h-2.452v9.5c0 .276-.22.5-.49.5"/><path d="m22.066 21a.495.495 0 0 1 -.49-.5v-5.5h-4.904v3.5c0 .276-.22.5-.49.5a.495.495 0 0 1 -.49-.5v-4c0-.276.219-.5.49-.5h5.884c.27 0 .49.224.49.5v6c0 .276-.22.5-.49.5m-21.086 6h3.068c.421-1.444 1.987-6.939 2.301-9.766-.827-.477-3.397-.94-5.368-1.176v10.942zm3.433 1h-3.923a.495.495 0 0 1 -.49-.5v-12c0-.142.059-.276.162-.371a.498.498 0 0 1 .378-.126c.93.097 5.623.63 6.662 1.634a.506.506 0 0 1 .151.407c-.276 3.23-2.382 10.303-2.47 10.602a.494.494 0 0 1 -.47.354z"/><path d="m16.42 30.002c-.786 0-1.485-.225-2.495-.614l-9.167-2.91a.502.502 0 0 1 -.323-.626.488.488 0 0 1 .614-.329l9.194 2.919c2.267.874 2.556.888 7.637-1.235l6.347-2.931c-.724-1.032-1.98-1.581-3.1-1.291l-4.87 1.616a.488.488 0 0 1 -.619-.322.501.501 0 0 1 .315-.63l4.904-1.625c1.74-.44 3.666.527 4.513 2.252a.515.515 0 0 1 .023.391.499.499 0 0 1 -.26.288l-6.865 3.17c-3.176 1.328-4.619 1.877-5.847 1.877"/><path d="m17.56 25.156c-.273 0-.547-.026-.814-.08l-5.319-1.086a.498.498 0 0 1 -.384-.588.488.488 0 0 1 .577-.392l5.318 1.084c.458.093.943.083 1.398-.034l1.274-.325c-.05-1.264-.631-1.882-2.076-2.25l-10.778-2.498a.5.5 0 0 1 -.37-.598.49.49 0 0 1 .588-.377l10.788 2.5c1.962.5 2.833 1.552 2.833 3.415v.198a.499.499 0 0 1 -.372.485l-1.65.421c-.33.083-.671.125-1.012.125"/></g></svg>