<svg viewBox="0 0 16 16" width="16" height="16" xmlns="http://www.w3.org/2000/svg"><path d="M15.908 6.403a.423.423 0 0 0-.318-.147h-1.557c-.384-.984-.884-1.948-1.452-2.313-1.967-1.257-7.19-1.257-9.159 0-.568.365-1.068 1.332-1.454 2.313H.41a.417.417 0 0 0-.318.147.394.394 0 0 0-.085.333l.233 1.086a.404.404 0 0 0 .4.316h.46a2.635 2.635 0 0 0-.663 1.757c-.004.777.3 1.478.857 1.976a.092.092 0 0 1 .017.013v1.518c0 .33.275.598.615.598h1.436a.606.606 0 0 0 .614-.598v-.61h8.046v.61c0 .33.275.598.615.598h1.436a.607.607 0 0 0 .615-.598v-1.488a2.63 2.63 0 0 0 .874-1.965 2.643 2.643 0 0 0-.694-1.811h.492a.404.404 0 0 0 .4-.318l.231-1.084a.4.4 0 0 0-.084-.333zM4.098 4.94c1.567-1.003 6.236-1.003 7.804 0 .306.194.698.978 1.056 1.94H3.041c.358-.959.75-1.744 1.056-1.94zm-1.84 5.104c0-.42.231-.807.605-1.017a1.24 1.24 0 0 1 1.209 0c.374.21.604.598.604 1.018 0 .649-.542 1.174-1.21 1.174-.667 0-1.208-.526-1.208-1.175zm10.29 1.174c-.431 0-.83-.224-1.046-.587a1.145 1.145 0 0 1 0-1.174 1.215 1.215 0 0 1 1.047-.587c.667 0 1.208.526 1.208 1.174 0 .648-.541 1.174-1.208 1.174z" fill="#fff"/></svg>
