<svg viewBox="0 0 16 16" width="16" height="16" xmlns="http://www.w3.org/2000/svg"><path d="M9.183 9.173a5.648 5.648 0 0 0 1.148-2.428L5.505 3.054a5.804 5.804 0 0 0-2.129 1.678A5.648 5.648 0 0 0 2.23 7.159l4.826 3.692a5.804 5.804 0 0 0 2.128-1.678zM10.11 8.894c-.141.306-.305.6-.49.882-.185.28-.395.531-.614.768l.832.75 1.103-1.65-.833-.75h.001zM11.708 10.337l-1.101 1.65 3.837 3.464c.424.383 1.015.323 1.32-.133.304-.454.207-1.134-.217-1.517l-3.837-3.465-.002.001zM4.672 13.043a1.024 1.024 0 0 0 1.46-.175 1.078 1.078 0 0 0-.188-1.49l-4.12-3.29a1.024 1.024 0 0 0-1.46.174 1.078 1.078 0 0 0 .188 1.492l4.12 3.289zM10.398 5.55a1.024 1.024 0 0 0 1.46-.174 1.078 1.078 0 0 0-.188-1.49L7.551.595A1.024 1.024 0 0 0 6.09.771a1.078 1.078 0 0 0 .188 1.49l4.119 3.29z" fill="#fff"/></svg>
