<svg viewBox="0 0 16 16" width="16" height="16" xmlns="http://www.w3.org/2000/svg"><path d="M9.151 1.974C9.608 1.543 10.176 1 11.521 1 13.386 1 14.5 2.202 14.5 4.208c0 .624-.372 1.523-.844 2.66-.59 1.424-1.323 4.749-1.323 4.749l-.136.799C12.01 13.513 11.834 15 10.979 15c-.697 0-1.233-2.584-1.586-3.797-.506-.87-.506-.87-1.122-.87h-.542c-.616 0-1.12-.018-1.273.87C6.04 13.617 5.718 15 5.021 15c-.855 0-1.104-1.476-1.218-2.584-.136-.8 0 0-.157-.8 0 0-.713-3.324-1.302-4.748-.472-1.137-.844-2.036-.844-2.66C1.5 2.93 1.5 1 3.938 1c1.323 0 2.071.53 2.673.95.405.287.724.508 1.118.508h.542c.372 0 .585-.198.88-.484zm2.56.8a.331.331 0 0 0 .381-.276.336.336 0 0 0-.277-.381c-.796-.126-1.752.404-1.907 1.384a.332.332 0 0 0 .277.382.332.332 0 0 0 .382-.277c.091-.58.677-.906 1.144-.832z" fill="#fff"/></svg>
