<svg viewBox="0 0 16 16" width="16" height="16" xmlns="http://www.w3.org/2000/svg"><path d="M14.982 15H1.019l-.014-.636a9.414 9.414 0 0 1 .011-.856l.025-.635c.01-.267.074-.518.182-.728.333-.644.75-1.124 1.309-1.51C3.293 10.11 5.342 9.56 6 9.362c-.208-.347-.75-1.848-.992-2.525l-.024-.069a1.703 1.703 0 0 0-.115-.108c-.334-.308-.443-.785-.294-1.255.026-.082.062-.152.1-.22.037-.067.063-.114.07-.146.016-.071.002-.216-.007-.32l-.017-.247c-.01-.25-.022-.505.02-.779.254-1.649 1.96-2.849 3.675-2.677 1.46.148 2.632 1.248 2.852 2.676.04.26.028.5.017.732l-.005.122a3.48 3.48 0 0 1-.015.18c-.01.107-.023.246-.008.316.007.031.033.08.061.13.05.09.085.16.108.235.154.477.036.956-.315 1.277a.43.43 0 0 0-.098.104l-.022.062c-.24.682-.782 2.186-.991 2.533.656.203 2.703.763 3.469 1.291.535.371.963.877 1.307 1.546.112.218.176.478.186.75l.022.535c.018.448.019.473.012.858l-.014.637z" fill="#fff" fill-rule="evenodd"/></svg>
