<svg viewBox="0 0 16 16" width="16" height="16" xmlns="http://www.w3.org/2000/svg"><path d="M6.663.94v4.588c0 .468-.16.848-.63.848-.469 0-.604-.38-.604-.848L5.404.94c0-.627-.426-.94-.778-.94-.352 0-.795.313-.795.94l-.008 4.588c0 .468-.151.848-.62.848-.47 0-.63-.38-.63-.848V.94c0-.627-.446-.94-.766-.94C1.455 0 1 .225 1 .94v5.28c0 1.633.928 2.987 2.674 3.229v5.685c0 .625.315.914.944.866.63.048.944-.241.944-.866V9.423c1.667-.3 2.674-1.633 2.674-3.217V.94c0-.627-.392-.94-.744-.94s-.83.313-.83.94zM15 .901c0-.496-.503-.898-1-.898 0 0-2.766-.366-3 7.414 0 1.87 1.182 1.678 2 1.908v5.726c0 .62.333.937 1 .949.667-.012 1-.328 1-.949V.901z" fill="#fff" fill-rule="evenodd"/></svg>
