<svg height="29" viewBox="0 0 30 29" width="30" xmlns="http://www.w3.org/2000/svg"><g fill-rule="evenodd"><path d="m16.477 12.745 11.756 10.335a2.28 2.28 0 0 1 .8 1.711 2.555 2.555 0 0 1 -.81 1.924c-.005 0-.008.01-.013.01l-.484.483c-.593.541-1.355.85-2.079.802a2.214 2.214 0 0 1 -1.57-.783l-10.346-11.736 2.746-2.745zm9.296 16.23c.925 0 1.872-.386 2.623-1.072l.492-.493a3.495 3.495 0 0 0 1.112-2.64c-.021-.947-.435-1.836-1.134-2.425l-12.091-10.625a.476.476 0 0 0 -.662.02l-3.386 3.383a.477.477 0 0 0 -.021.657l10.644 12.084c.592.677 1.368 1.063 2.243 1.112h.179z"/><path d="m17.707 10.145-6.574 6.573-5.122-5.123 6.574-6.564zm-6.574 7.733a.507.507 0 0 0 .342-.135l7.258-7.25a.485.485 0 0 0 0-.686l-5.807-5.8a.476.476 0 0 0 -.684 0l-7.258 7.25a.487.487 0 0 0 0 .686l5.806 5.8a.511.511 0 0 0 .343.136z"/><path d="m5.122 12.05 5.544 5.538a1.64 1.64 0 0 1 0 2.32 2.572 2.572 0 0 1 -3.64 0l-4.233-4.224c-.573-.57-.879-1.256-.862-1.933.014-.619.306-1.199.845-1.682.634-.638 1.884-.455 2.346-.02zm3.723 9.58c.906 0 1.813-.349 2.503-1.035a2.614 2.614 0 0 0 .002-3.693l-5.547-5.539c-.003 0-.005 0-.008-.01-.757-.715-2.637-1.034-3.684.01-.724.658-1.127 1.48-1.148 2.359-.023.947.384 1.885 1.146 2.639l4.234 4.234a3.544 3.544 0 0 0 2.502 1.034zm6.111-20.668c.659 0 1.317.251 1.818.754l4.234 4.234a2.56 2.56 0 0 1 0 3.625c-.608.609-1.61.899-2.275.232l-5.807-5.8a1.34 1.34 0 0 1 -.38-1.102c.042-.416.257-.85.59-1.19a2.567 2.567 0 0 1 1.82-.753zm4.71 10.188c.704 0 1.439-.3 2.024-.889a3.532 3.532 0 0 0 .002-4.997l-4.234-4.235a3.556 3.556 0 0 0 -5.005 0c-.497.503-.805 1.131-.87 1.789a2.29 2.29 0 0 0 .659 1.875l5.806 5.8a2.284 2.284 0 0 0 1.618.657zm-6.193 16.879h-11.454c.303-.957 1.413-1.934 2.34-1.934h6.774c.927 0 2.037.977 2.34 1.934zm-12.017.966h12.58a.481.481 0 0 0 .484-.483c0-1.614-1.772-3.384-3.387-3.384h-6.774c-1.615 0-3.387 1.77-3.387 3.384 0 .27.216.483.484.483z"/></g></svg>