<svg xmlns="http://www.w3.org/2000/svg" width="20" height="20" viewBox="0 0 20 20">
    <g fill="none" fill-rule="evenodd" stroke-linecap="round" stroke-linejoin="round">
        <g stroke="#000">
            <g>
                <g>
                    <path d="M19 6.045V1.727C19 .773 18.224 0 17.267 0H7.733C6.776 0 6 .773 6 1.727v15.546C6 18.227 6.776 19 7.733 19h9.534c.957 0 1.733-.773 1.733-1.727v-4.318" transform="translate(-156.000000, -73.000000) translate(156.000000, 73.000000) translate(0.500000, 0.500000) translate(12.500000, 9.500000) scale(-1, 1) translate(-12.500000, -9.500000)"/>
                    <path d="M0 9.5L11.5 9.5M8 6L11.5 9.5 8 13" transform="translate(-156.000000, -73.000000) translate(156.000000, 73.000000) translate(0.500000, 0.500000)"/>
                </g>
            </g>
        </g>
    </g>
</svg>
