<svg height="30" viewBox="0 0 31 30" width="31" xmlns="http://www.w3.org/2000/svg"><g><path d="m10.449 16.051-1.55 2.041a.5.5 0 0 1 -.399.197h-7.5a.5.5 0 1 1 0-1h7.252l1.85-2.434a.5.5 0 0 1 .828.048l1.986 3.345 2.62-6.437a.5.5 0 0 1 .95.068l2.16 8.647 1.402-2.951a.5.5 0 0 1 .452-.286h9.5a.5.5 0 1 1 0 1h-9.184l-1.864 3.926a.5.5 0 0 1 -.937-.094l-2.129-8.515-2.423 5.951a.5.5 0 0 1 -.893.067l-2.12-3.574z"/><path d="m22.832 1.005c3.88.15 6.668 3.685 6.668 9.33 0 1.04-.204 1.905-.631 2.879-.21.48-1.11 2.212-1.25 2.503a.5.5 0 0 1 -.9-.434c.152-.318 1.04-2.027 1.234-2.47.375-.855.547-1.586.547-2.478 0-5.146-2.412-8.204-5.707-8.33-3.21-.124-6.135 2.595-6.799 6.934-.086.566-.902.566-.988 0-.664-4.339-3.59-7.058-6.8-6.935-3.293.127-5.706 3.186-5.706 8.33 0 1.1.248 2.144.776 3.515.148.383.18.462.595 1.46a.5.5 0 0 1 -.923.383 47.324 47.324 0 0 1 -.605-1.484c-.568-1.475-.843-2.63-.843-3.873 0-5.645 2.788-9.18 6.668-9.33 3.189-.123 6.086 2.112 7.332 5.752 1.246-3.64 4.143-5.875 7.332-5.752zm-7.26 27.137a55.149 55.149 0 0 0 6.094-6.032 43.61 43.61 0 0 0 1.933-2.408.5.5 0 0 1 .802.596 44.606 44.606 0 0 1 -1.977 2.464 56.136 56.136 0 0 1 -6.208 6.144c-.28.236-.48.4-.59.486a.5.5 0 0 1 -.59.023c-.11-.075-.312-.217-.593-.423a45.18 45.18 0 0 1 -6.222-5.541 35.65 35.65 0 0 1 -2.624-3.155.5.5 0 1 1 .806-.592 34.656 34.656 0 0 0 2.55 3.066 44.19 44.19 0 0 0 6.34 5.604l.28-.232z"/></g></svg>