<svg height="27" viewBox="0 0 27 27" width="27" xmlns="http://www.w3.org/2000/svg"><path d="m20.498 24.523c-3.11 3.292-5.313 0-7.513.365-2.198.365-6.228 2.191-8.427 0-2.2-2.19 4.213-11.695 8.427-11.506 4.032.182 9.528 9.008 7.513 11.14zm5.081-15.025c1.188 1.15.79 3.482-.893 5.212-1.684 1.73-4.01 2.2-5.199 1.047-1.188-1.149-.787-3.487.894-5.213 1.684-1.73 4.01-2.2 5.198-1.046zm-23.859-1.654c1.648-.654 3.765.764 4.726 3.168.959 2.403.4 4.884-1.25 5.535-1.65.654-3.766-.763-4.726-3.165s-.401-4.883 1.25-5.538zm6.777-7.818c1.777-.282 3.586 1.79 4.038 4.628.456 2.838-.615 5.37-2.391 5.65-1.776.284-3.582-1.788-4.04-4.626-.452-2.839.618-5.369 2.394-5.652zm12.2 6.398c-.794 2.764-2.838 4.604-4.568 4.112-1.728-.493-2.486-3.134-1.693-5.897.794-2.764 2.838-4.604 4.567-4.112 1.728.494 2.486 3.134 1.694 5.897z" fill="none" stroke="#000"/></svg>