<svg xmlns="http://www.w3.org/2000/svg" width="13" height="16" viewBox="0 0 13 16">
    <g fill="none" fill-rule="evenodd">
        <g fill="#222">
            <g>
                <path d="M8 2.764v5.472c0 .26.258.528.511.528H9.6V8h-.8V2.764c.16-.844.682-1.555 1.6-1.763V16h.8V.47c.003-.256-.201-.466-.457-.47C9.26 0 8 1.24 8 2.764zM3.2 4.8L4 4.8 4 0 3.2 0z" transform="translate(-406.000000, -327.000000) translate(406.000000, 327.000000)"/>
                <path d="M4.8 4.8c-.188.692-.96 1.404-2 1.6-.976-.196-1.812-.908-2-1.6V0H0v4.493C0 5.847 1.003 6.96 2.4 7.2V16h.8V7.2c1.397-.24 2.4-1.353 2.4-2.707V0h-.8v4.8z" transform="translate(-406.000000, -327.000000) translate(406.000000, 327.000000)"/>
                <path d="M1.6 4.8L2.4 4.8 2.4 0 1.6 0z" transform="translate(-406.000000, -327.000000) translate(406.000000, 327.000000)"/>
            </g>
        </g>
    </g>
</svg>
