<svg xmlns="http://www.w3.org/2000/svg" width="20" height="17" viewBox="0 0 20 17">
    <g fill="none" fill-rule="evenodd">
        <g fill-rule="nonzero">
            <g>
                <path fill="#FFD400" d="M0 13.933H19.474V16.041H0z" transform="translate(-156.000000, -116.000000) translate(156.328453, 116.068199)"/>
                <path fill="#000" d="M5.976 10.51c-.617 1.734-1.424 2.295-3.067 2.295-.557.001-1.109-.104-1.627-.309v-2.035c.458.185.946.284 1.439.292.727 0 1.035-.37 1.035-.841-.026-.264-.1-.521-.216-.759C3.393 8.773.047.222.047.222h2.486l2.415 7.176h.031L7.116.222H9.49L5.976 10.51zM10.226.223h2.275v.804h.038C13.313.346 14.312-.02 15.341 0c2.386 0 4.183 2.22 4.183 4.946 0 2.508-1.477 4.948-4.447 4.948-1.187 0-2.156-.42-2.576-.937v3.733h-2.275V.221zm6.914 4.725c-.019-1.363-.64-2.854-2.355-2.854-1.714 0-2.339 1.494-2.358 2.854.02 1.362.641 2.853 2.358 2.853s2.336-1.493 2.355-2.853z" transform="translate(-156.000000, -116.000000) translate(156.328453, 116.068199)"/>
            </g>
        </g>
    </g>
</svg>
