<svg viewBox="0 0 86 30" xmlns="http://www.w3.org/2000/svg"><g fill="none" fill-rule="evenodd"><path d="m.265 29.734h29.378v-29.287h-29.378" fill="#0a0a08"/><g fill="#fff"><path d="m.53 29.468h28.85v-28.755h-28.85zm-.53.532h29.908v-29.82h-29.908z"/><path d="m38.572 8.46h-1.68v5.066h-1.138v-5.066h-1.646v-1.035h4.464z"/><path d="m39.98 7.424v2.22c.327-.327.775-.57 1.37-.57.534 0 .948.208 1.18.468.354.38.362.82.362 1.313v2.67h-1.017v-2.375c-.017-.39-.017-.485-.07-.614-.033-.087-.18-.476-.748-.476-.664 0-.974.536-1.043.787-.035.138-.035.207-.035.69v1.99h-1.035v-6.104h1.034"/><path d="m46.702 10.812c-.095-.674-.51-.907-.965-.907-.552 0-.93.32-1.052.907zm1.172 1.746c-.534.718-1.224 1.098-2.103 1.098-1.128 0-2.214-.717-2.214-2.308 0-1.452.93-2.273 2.146-2.273 1.138 0 1.612.683 1.698.812.354.502.43 1.254.44 1.686h-3.19c.12.683.544 1.072 1.225 1.072.706 0 .99-.415 1.12-.597l.88.51z"/><path d="m51.926 8.41v1.91h.396c.388 0 .534-.01.75-.018.25-.008 1.07-.052 1.07-.942 0-.13-.01-.58-.484-.82-.24-.122-.534-.13-1.207-.13h-.524zm-1.13-.986h1.94c.81.008 1.353.008 1.887.44.38.312.672.796.672 1.505 0 1.166-.853 1.572-1.197 1.676l1.353 2.48h-1.3l-1.207-2.264h-1.017v2.264h-1.13v-6.101z"/><path d="m58.933 10.812c-.095-.674-.51-.907-.965-.907-.552 0-.93.32-1.052.907zm1.172 1.746c-.534.718-1.224 1.098-2.103 1.098-1.13 0-2.215-.717-2.215-2.308 0-1.452.93-2.273 2.146-2.273 1.138 0 1.612.683 1.698.812.354.502.432 1.254.44 1.686h-3.188c.12.683.543 1.072 1.223 1.072.707 0 .992-.415 1.12-.597l.88.51z"/><path d="m63.25 11.374c-.206.104-.438.182-.904.26-.37.05-.86.137-.86.596 0 .337.283.51.696.51.526 0 .897-.242 1.01-.502.06-.13.06-.26.06-.39v-.474zm-2.662-.9c.017-.215.035-.397.173-.647.414-.752 1.44-.752 1.716-.752.413 0 .913.052 1.292.276.51.312.518.72.518 1.186v2.29c0 .33 0 .44.19.7h-1.227c-.007-.103-.025-.276-.025-.337-.224.19-.68.44-1.275.44-.974 0-1.56-.605-1.56-1.35 0-.214.052-.413.138-.586.31-.622.974-.76 1.387-.84.888-.18.957-.197 1.336-.318 0-.217-.016-.657-.73-.657-.432 0-.665.137-.768.275-.112.14-.104.26-.104.38l-1.06-.06z"/><path d="m65.225 13.526h1.043v-6.102h-1.043"/><path d="m37.15 21.064v2.41h-1.12v-2.41l-2.034-3.69h1.284l1.318 2.53 1.336-2.53h1.266z"/><path d="m41.677 20.76c-.095-.673-.51-.906-.965-.906-.552 0-.93.32-1.052.907h2.017zm1.172 1.747c-.535.718-1.225 1.098-2.104 1.098-1.13 0-2.215-.717-2.215-2.308 0-1.452.932-2.273 2.147-2.273 1.138 0 1.612.683 1.698.812.354.502.43 1.254.44 1.686h-3.19c.122.683.544 1.072 1.225 1.072.706 0 .99-.415 1.12-.597l.88.51z"/><path d="m43.47 23.476h1.043v-6.103h-1.043"/><path d="m45.452 23.476h1.043v-6.103h-1.043"/><path d="m49.365 19.957c-.646 0-1.112.52-1.112 1.314 0 .892.544 1.384 1.164 1.384.75 0 1.13-.657 1.103-1.374-.017-.717-.43-1.323-1.155-1.323zm.052 3.648c-1.345 0-2.24-.985-2.24-2.308s.913-2.273 2.197-2.273c1.198 0 2.224.838 2.232 2.273 0 1.35-.888 2.308-2.19 2.308z"/><path d="m56.985 19.153h1.077l-1.293 4.322h-1.027l-.775-2.757-.828 2.757h-1.017l-1.25-4.322h1.078l.75 2.957.802-2.957h.923l.792 2.957z"/><path d="m62.036 18.35v2.117h.82c.24 0 .447 0 .645-.05.708-.175.75-.823.75-1.04 0-.448-.197-.68-.3-.777-.285-.242-.68-.25-1.052-.25h-.862zm-1.146-.977h2.05c.337 0 .69 0 1.044.095.595.164 1.43.7 1.43 1.936 0 .813-.38 1.686-1.465 1.928-.337.077-.656.077-1.026.077h-.888v2.065h-1.145v-6.102z"/><path d="m68.483 21.323c-.207.104-.44.18-.905.26-.37.05-.862.138-.862.596 0 .336.285.51.698.51.526 0 .897-.243 1.01-.503.06-.13.06-.26.06-.388v-.477zm-2.663-.9c.017-.215.035-.396.173-.647.413-.752 1.44-.752 1.715-.752.413 0 .913.052 1.292.277.51.312.517.718.517 1.185v2.29c0 .33 0 .44.19.7h-1.224c-.008-.103-.026-.276-.026-.337-.224.19-.68.44-1.275.44-.974 0-1.56-.604-1.56-1.347 0-.215.05-.414.138-.587.31-.622.974-.76 1.387-.84.888-.18.957-.197 1.336-.318 0-.216-.017-.657-.732-.657-.43 0-.663.138-.766.276-.113.14-.104.26-.104.38l-1.06-.06z"/><path d="m72.31 19.95c-.525 0-1.06.353-1.06 1.183 0 .752.457 1.14 1.07 1.14.55 0 1.05-.302 1.06-1.097.008-.7-.37-1.227-1.07-1.227zm2.07-.797v3.544c-.01.856-.01 1.202-.277 1.565-.24.32-.776.657-1.793.657-1.534 0-1.835-.667-1.982-1.358h1.138c.077.25.258.536.88.536.525 0 .757-.208.852-.346.155-.216.155-.467.155-.994-.224.207-.672.467-1.292.467-1.017 0-1.87-.692-1.87-2.066 0-1.61 1.147-2.136 1.94-2.136.775 0 1.103.424 1.223.58v-.45h1.026z"/><path d="m78.19 20.76c-.096-.673-.51-.906-.967-.906-.55 0-.93.32-1.05.907h2.016zm1.17 1.747c-.534.718-1.223 1.098-2.102 1.098-1.13 0-2.215-.717-2.215-2.308 0-1.452.93-2.273 2.146-2.273 1.137 0 1.61.683 1.697.812.353.502.43 1.254.44 1.686h-3.19c.12.683.543 1.072 1.224 1.072.708 0 .992-.415 1.122-.597l.88.51z"/><path d="m80.378 22.196c.26.32.647.553 1.24.553.596 0 .854-.295.854-.51 0-.277-.31-.346-.448-.372-.146-.035-.853-.165-1.008-.208-1.026-.242-1.215-.838-1.215-1.227 0-.735.665-1.41 1.845-1.41.655 0 1.13.208 1.422.416.216.137.354.284.44.388l-.733.683c-.12-.233-.413-.656-1.172-.656-.49 0-.715.216-.715.44 0 .312.32.398.87.493.897.164 1.146.208 1.422.424.266.208.44.554.44.917 0 .674-.604 1.478-1.94 1.478-.767 0-1.526-.242-2.07-.77l.768-.64"/></g><path d="m5.533 22.164h18.67v-1.917h-18.67" fill="#f9d021"/><g fill="#fff"><path d="m21.993 12.157c-.017-1.264-.594-2.65-2.182-2.65s-2.165 1.386-2.183 2.65c.018 1.264.595 2.65 2.184 2.65 1.59 0 2.166-1.386 2.183-2.65zm-6.403-4.382h2.106v.745h.035c.64-.588 1.562-.95 2.598-.95 2.21 0 3.875 2.06 3.875 4.587 0 2.327-1.367 4.59-4.12 4.59-1.102 0-1.996-.39-2.387-.87v3.466h-2.107zm-3.938 9.544c-.57 1.607-1.324 2.13-2.842 2.13-.52 0-1.037-.103-1.5-.29v-1.887c.33.135.83.27 1.332.27.674 0 .958-.342.958-.78 0-.172-.062-.35-.2-.703-.136-.354-3.236-8.285-3.236-8.285h2.298l2.24 6.658h.027l1.986-6.658h2.2l-3.264 9.544z"/><path d="m84.75 18.21h.165c.08 0 .24.002.24-.156 0-.042-.018-.105-.08-.133-.04-.016-.065-.016-.198-.016h-.127v.306zm.162-.462c.115 0 .193.003.263.028.12.043.18.153.18.26 0 .144-.088.232-.23.27.09.04.135.082.16.235.025.17.035.234.085.334h-.228c-.01-.017-.027-.057-.045-.155l-.027-.174c-.03-.16-.108-.173-.253-.176h-.07v.504h-.2v-1.126zm.015-.243c-.457 0-.812.366-.812.815 0 .454.365.81.81.81.455 0 .808-.358.81-.807.003-.447-.345-.818-.808-.818zm-.005 1.706c-.462 0-.887-.363-.887-.89 0-.517.407-.895.887-.895.518 0 .896.41.893.898-.002.494-.39.888-.893.888z"/></g></g></svg>